<?xml version="1.0" encoding="UTF-8" standalone="no"?>
<!-- Created with Inkscape (http://www.inkscape.org/) -->

<svg
   xmlns:dc="http://purl.org/dc/elements/1.1/"
   xmlns:cc="http://creativecommons.org/ns#"
   xmlns:rdf="http://www.w3.org/1999/02/22-rdf-syntax-ns#"
   xmlns:svg="http://www.w3.org/2000/svg"
   xmlns="http://www.w3.org/2000/svg"
   xmlns:sodipodi="http://sodipodi.sourceforge.net/DTD/sodipodi-0.dtd"
   xmlns:inkscape="http://www.inkscape.org/namespaces/inkscape"
   width="273.76654"
   height="89.607635"
   viewBox="0 0 72.434069 23.708687"
   version="1.1"
   id="svg8"
   inkscape:version="0.92.1 r15371"
   sodipodi:docname="simons-rock.svg">
  <defs
     id="defs2">
    <clipPath
       id="clipPath12842"
       clipPathUnits="userSpaceOnUse">
      <path
         inkscape:connector-curvature="0"
         id="path12840"
         d="m 36,36 h 205.325 v 87.957 H 36 Z" />
    </clipPath>
    <clipPath
       id="clipPath12842-9"
       clipPathUnits="userSpaceOnUse">
      <path
         inkscape:connector-curvature="0"
         id="path12840-4"
         d="m 36,36 h 205.325 v 87.957 H 36 Z" />
    </clipPath>
  </defs>
  <sodipodi:namedview
     id="base"
     pagecolor="#ffffff"
     bordercolor="#666666"
     borderopacity="1.0"
     inkscape:pageopacity="0.0"
     inkscape:pageshadow="2"
     inkscape:zoom="2.8"
     inkscape:cx="187.74826"
     inkscape:cy="1.8506025"
     inkscape:document-units="mm"
     inkscape:current-layer="g12838"
     showgrid="false"
     fit-margin-top="0"
     fit-margin-left="0"
     fit-margin-right="0"
     fit-margin-bottom="0"
     inkscape:window-width="1920"
     inkscape:window-height="997"
     inkscape:window-x="-8"
     inkscape:window-y="-8"
     inkscape:window-maximized="1"
     units="px" />
  <metadata
     id="metadata5">
    <rdf:RDF>
      <cc:Work
         rdf:about="">
        <dc:format>image/svg+xml</dc:format>
        <dc:type
           rdf:resource="http://purl.org/dc/dcmitype/StillImage" />
        <dc:title></dc:title>
      </cc:Work>
    </rdf:RDF>
  </metadata>
  <g
     inkscape:label="Layer 1"
     inkscape:groupmode="layer"
     id="layer1"
     transform="translate(133.66176,-252.23765)">
    <g
       transform="matrix(0.35277777,0,0,-0.35277777,-146.3618,288.64643)"
       inkscape:label="factsheet"
       id="g12660">
      <g
         transform="translate(3.6063208e-7,3.2413381e-6)"
         id="g12836">
        <g
           clip-path="url(#clipPath12842-9)"
           id="g12838">
          <g
             transform="translate(114.5121,48.6884)"
             id="g12848">
            <path
               inkscape:connector-curvature="0"
               id="path12850"
               style="fill:#5d5351;fill-opacity:1;fill-rule:nonzero;stroke:none"
               d="m 0,0 -0.13,-0.559 h -1.937 l -0.968,-4.226 c -0.149,-0.688 -0.298,-1.21 -0.316,-1.638 -0.02,-0.28 0.018,-0.391 0.167,-0.52 0.336,-0.28 0.968,0.11 1.881,0.893 l 0.241,-0.299 c -1.321,-1.657 -3.072,-1.862 -3.556,-0.913 -0.316,0.615 0.074,1.938 0.392,3.297 l 0.781,3.406 H -4.803 L -4.673,0 h 1.359 L -2.886,1.898 -1.396,2.42 -1.955,0 Z" />
          </g>
          <g
             transform="translate(122.4816,45.6171)"
             id="g12852">
            <path
               inkscape:connector-curvature="0"
               id="path12854"
               style="fill:#5d5351;fill-opacity:1;fill-rule:nonzero;stroke:none"
               d="m 0,0 c -0.28,-1.285 -0.876,-3.259 -0.876,-3.632 -0.018,-0.166 -0.018,-0.316 0.058,-0.371 0.277,-0.13 0.762,0.149 1.469,1.265 L 0.966,-2.944 C 0.41,-4.191 -0.168,-4.579 -0.745,-4.767 -1.08,-4.878 -1.862,-4.991 -2.16,-4.598 c -0.28,0.371 -0.095,1.078 -0.019,1.377 0.131,0.557 0.428,1.676 0.669,2.718 0.634,2.532 0.692,3.387 -0.519,3.37 C -2.794,2.83 -3.762,2.067 -4.32,1.21 -4.749,0.539 -5.008,0.036 -5.344,-1.454 L -6.089,-4.73 h -1.359 l 2.737,12.084 -1.322,0.187 0.038,0.297 2.94,0.504 -1.712,-7.021 c 0.334,0.54 1.323,2.104 3.035,2.177 C 1.024,3.538 0.353,1.638 0,0" />
          </g>
          <g
             transform="translate(129.595,45.8387)"
             id="g12856">
            <path
               inkscape:connector-curvature="0"
               id="path12858"
               style="fill:#5d5351;fill-opacity:1;fill-rule:nonzero;stroke:none"
               d="M 0,0 C 0.893,0.653 1.266,2.627 -0.244,2.645 -1.806,2.683 -2.831,0.82 -3.185,-0.668 -2.122,-0.614 -0.968,-0.706 0,0 m -4.767,-0.65 c 0.689,2.476 2.681,3.836 4.674,3.836 2.42,0 2.812,-2.086 1.693,-3.239 -1.154,-1.193 -3.668,-1.249 -4.915,-1.211 -0.26,-1.229 -0.447,-3.276 1.583,-3.334 0.651,0 1.509,0.168 2.923,1.36 L 1.47,-3.573 c -0.838,-0.839 -1.863,-1.565 -3.332,-1.601 -2.532,0 -3.669,1.472 -2.905,4.524" />
          </g>
          <g
             transform="translate(145.9986,52.6354)"
             id="g12860">
            <path
               inkscape:connector-curvature="0"
               id="path12862"
               style="fill:#5d5351;fill-opacity:1;fill-rule:nonzero;stroke:none"
               d="M 0,0 0.018,-2.14 -0.318,-2.178 -0.875,-0.8 h -4.134 v -4.152 h 3.501 l 0.541,1.134 0.333,-0.017 -0.092,-3.222 h -0.373 l -0.409,1.23 h -3.501 v -4.896 l 4.431,0.018 0.653,1.508 h 0.354 l -0.131,-2.42 h -9.067 v 0.354 c 0,0 1.637,0.52 1.619,0.52 v 9.961 l -1.546,0.448 V 0 Z" />
          </g>
          <g
             transform="translate(150.1515,42.8789)"
             id="g12864">
            <path
               inkscape:connector-curvature="0"
               id="path12866"
               style="fill:#5d5351;fill-opacity:1;fill-rule:nonzero;stroke:none"
               d="m 0,0 c 0.093,-0.874 0.485,-1.302 1.211,-1.302 0.557,0 1.581,0.372 1.749,1.749 0.075,0.616 0.057,1.788 0.057,1.696 0,0 -0.969,0.054 -1.751,-0.152 C 0.764,1.862 -0.15,1.471 0,0 M 1.433,6.163 C 1.75,6.163 3.667,6.294 4.486,5.327 5.009,4.711 5.009,4.097 5.009,3.242 V -1.06 l 1.358,-0.429 v -0.352 c -0.763,0 -3.221,-0.206 -3.221,-0.206 l -0.15,1.452 c -0.279,-0.782 -1.209,-1.527 -2.55,-1.564 -1.247,-0.038 -2.383,0.67 -2.513,1.994 -0.167,1.675 1.433,2.568 2.96,2.809 0.578,0.094 1.285,0.15 2.124,0.15 V 3.985 C 2.996,5.046 2.253,5.512 1.471,5.53 0.316,5.549 -0.28,4.283 -0.671,3.575 l -1.005,1.342 c 0.987,0.893 2.161,1.246 3.109,1.246" />
          </g>
          <g
             transform="translate(156.892,48.3537)"
             id="g12868">
            <path
               inkscape:connector-curvature="0"
               id="path12870"
               style="fill:#5d5351;fill-opacity:1;fill-rule:nonzero;stroke:none"
               d="M 0,0 V 0.335 L 3.016,0.651 3.202,-0.597 C 3.724,0.204 4.451,0.576 4.858,0.651 5.436,0.762 6.256,0.781 6.852,0.354 L 6.18,-1.47 C 5.753,-0.744 5.399,-0.429 4.933,-0.392 3.742,-0.299 3.239,-1.118 3.239,-3.016 V -6.535 L 4.858,-7 V -7.335 H 0.055 V -7 l 1.211,0.501 v 6.145 z" />
          </g>
          <g
             transform="translate(164.2838,53.3234)"
             id="g12872">
            <path
               inkscape:connector-curvature="0"
               id="path12874"
               style="fill:#5d5351;fill-opacity:1;fill-rule:nonzero;stroke:none"
               d="m 0,0 v 0.337 l 3.351,0.278 v -12.119 l 1.286,-0.466 v -0.335 H 0.093 v 0.335 c 0,0 1.285,0.466 1.267,0.466 v 11.151 z" />
          </g>
          <g
             transform="translate(173.5369,48.8003)"
             id="g12876">
            <path
               inkscape:connector-curvature="0"
               id="path12878"
               style="fill:#5d5351;fill-opacity:1;fill-rule:nonzero;stroke:none"
               d="m 0,0 v -0.299 l -0.969,-0.465 c -0.018,-0.018 1.957,-4.58 1.957,-4.58 0,0 0.874,1.992 1.993,4.712 L 1.974,-0.299 V 0 h 3.39 V -0.299 L 4.245,-0.708 c 0,-0.037 -5.308,-11.821 -5.308,-11.821 l -1.525,0.185 c 1.49,2.495 2.496,4.562 2.496,4.562 0,0 -3.111,6.963 -3.111,7 l -1.153,0.483 V 0 Z" />
          </g>
          <g
             transform="translate(193.945,49.7684)"
             id="g12880">
            <path
               inkscape:connector-curvature="0"
               id="path12882"
               style="fill:#5d5351;fill-opacity:1;fill-rule:nonzero;stroke:none"
               d="m 0,0 -0.409,0.038 c 0,-0.017 -0.335,1.544 -0.335,1.544 -0.391,0.298 -1.435,0.894 -3.017,0.82 -1.898,-0.093 -3.203,-2.198 -3.369,-5.121 -0.169,-2.94 0.986,-5.473 3.629,-5.604 0.726,-0.037 2.087,0.336 2.812,0.951 l 0.596,1.619 0.409,-0.038 -0.185,-2.512 c -0.857,-0.447 -2.365,-0.819 -4.395,-0.765 -2.997,0.056 -5.437,1.993 -5.324,6.294 0.075,2.942 1.676,5.809 5.64,5.939 2.998,0.037 4.19,-0.8 4.19,-0.8 z" />
          </g>
          <g
             transform="translate(199.8101,41.2982)"
             id="g12884">
            <path
               inkscape:connector-curvature="0"
               id="path12886"
               style="fill:#5d5351;fill-opacity:1;fill-rule:nonzero;stroke:none"
               d="M 0,0 C 1.527,0 2.031,1.581 2.012,3.686 1.994,5.64 1.527,7.186 0,7.186 -1.524,7.186 -2.01,5.547 -2.01,3.686 -2.01,1.675 -1.524,0 0,0 M 4.338,3.815 C 4.431,1.098 2.57,-0.616 0,-0.616 c -2.567,0 -4.413,1.714 -4.319,4.431 0.074,2.849 1.805,3.985 4.282,3.985 2.551,0 4.301,-1.136 4.375,-3.985" />
          </g>
          <g
             transform="translate(204.9874,53.3234)"
             id="g12888">
            <path
               inkscape:connector-curvature="0"
               id="path12890"
               style="fill:#5d5351;fill-opacity:1;fill-rule:nonzero;stroke:none"
               d="m 0,0 v 0.337 l 3.351,0.278 v -12.119 l 1.285,-0.466 v -0.335 H 0.093 v 0.335 c 0,0 1.285,0.466 1.266,0.466 v 11.151 z" />
          </g>
          <g
             transform="translate(210.294,53.3234)"
             id="g12892">
            <path
               inkscape:connector-curvature="0"
               id="path12894"
               style="fill:#5d5351;fill-opacity:1;fill-rule:nonzero;stroke:none"
               d="m 0,0 v 0.337 l 3.351,0.278 v -12.119 l 1.286,-0.466 v -0.335 H 0.092 v 0.335 c 0,0 1.287,0.466 1.266,0.466 v 11.151 z" />
          </g>
          <g
             transform="translate(221.3528,45.7656)"
             id="g12896">
            <path
               inkscape:connector-curvature="0"
               id="path12898"
               style="fill:#5d5351;fill-opacity:1;fill-rule:nonzero;stroke:none"
               d="M 0,0 C 0.019,1.284 -0.353,2.681 -1.34,2.756 -2.68,2.867 -3.145,1.247 -3.296,0 Z m -1.117,-4.357 c 0.541,-0.019 1.379,0.206 2.59,1.36 l 0.371,-0.467 c -0.763,-0.912 -1.657,-1.619 -3.109,-1.637 -2.662,-0.039 -4.393,1.415 -4.282,4.487 0.129,2.514 1.861,4.06 4.245,3.946 2.271,-0.111 3.369,-2.028 3.24,-4.04 h -5.27 c -0.038,-1.489 0.057,-3.574 2.215,-3.649" />
          </g>
          <g
             transform="translate(226.6054,46.2679)"
             id="g12900">
            <path
               inkscape:connector-curvature="0"
               id="path12902"
               style="fill:#5d5351;fill-opacity:1;fill-rule:nonzero;stroke:none"
               d="M 0,0 C 0.036,-1.415 0.484,-2.14 1.526,-2.105 2.643,-2.067 2.978,-1.06 2.923,0.168 2.868,1.471 2.494,2.365 1.396,2.328 0.354,2.289 -0.038,1.397 0,0 M -0.745,-7.82 C -0.633,-8.788 0.539,-9.588 1.786,-9.514 2.904,-9.44 4.17,-8.452 4.115,-7.317 4.076,-6.423 3.387,-6.05 1.711,-6.032 0.148,-5.995 -0.914,-6.46 -0.745,-7.82 m 4.524,9.999 c 0,0 0.466,0.708 1.452,0.781 C 5.752,3.035 6.367,2.905 6.626,2.662 L 6.181,1.173 C 5.772,1.694 5.436,1.954 5.081,2.011 4.618,2.16 4.336,1.9 4.206,1.787 4.523,1.471 4.933,0.856 4.933,0.204 c 0,-1.712 -1.638,-2.829 -3.388,-2.921 -0.373,-0.02 -0.763,0.055 -1.117,0.129 0,0 -0.988,-0.409 -0.801,-1.117 0.151,-0.558 1.285,-0.54 1.936,-0.54 2.867,-0.018 3.966,-0.578 4.096,-2.718 0.037,-1.302 -1.115,-2.924 -3.462,-3.24 -2.104,-0.279 -4.151,0.337 -4.469,2.011 -0.224,1.173 0.429,2.235 1.861,2.514 -0.633,0.167 -1.06,0.465 -1.229,1.21 -0.149,0.633 0.021,1.508 1.341,2.122 -1.022,0.503 -1.729,1.174 -1.75,2.309 -0.055,1.898 1.75,2.884 3.521,2.904 1.338,0.02 1.879,-0.371 2.307,-0.688" />
          </g>
          <g
             transform="translate(239.3781,45.7656)"
             id="g12904">
            <path
               inkscape:connector-curvature="0"
               id="path12906"
               style="fill:#5d5351;fill-opacity:1;fill-rule:nonzero;stroke:none"
               d="M 0,0 C 0.019,1.284 -0.354,2.681 -1.34,2.756 -2.681,2.867 -3.147,1.247 -3.295,0 Z m -1.117,-4.357 c 0.539,-0.019 1.377,0.206 2.588,1.36 l 0.372,-0.467 c -0.764,-0.912 -1.656,-1.619 -3.109,-1.637 -2.663,-0.039 -4.393,1.415 -4.282,4.487 0.131,2.514 1.862,4.06 4.244,3.946 2.272,-0.111 3.371,-2.028 3.241,-4.04 h -5.27 c -0.037,-1.489 0.056,-3.574 2.216,-3.649" />
          </g>
          <g
             transform="translate(44.6361,92.2969)"
             id="g12908">
            <path
               inkscape:connector-curvature="0"
               id="path12910"
               style="fill:#5d5351;fill-opacity:1;fill-rule:nonzero;stroke:none"
               d="M 0,0 C -0.065,3.558 -3.986,2.786 -4.372,2.786 V -3.128 C -2.486,-3.749 0.065,-3.386 0,0 m -0.793,6.558 c -0.043,1.822 -1.2,2.208 -2.186,2.208 -0.621,0 -1.264,-0.129 -1.393,-0.172 V 3.772 c 1.5,-0.171 3.644,-0.236 3.579,2.786 m -4.864,2.851 c 1.264,0 2.036,0.107 3.278,0.107 2.208,0 4.286,-0.686 4.221,-2.936 C 1.8,4.652 0.129,3.772 -1.479,3.429 0.772,3.237 2.764,1.951 2.658,-0.428 c -0.129,-2.528 -2.422,-3.75 -5.336,-3.62 -1.264,0.063 -2.979,0.106 -5.958,0.085 v 0.386 c 0,-0.022 1.843,0.621 1.843,0.621 v 11.4 l -1.714,0.579 v 0.386 c 2.443,-0.022 2.85,0 2.85,0" />
          </g>
          <g
             transform="translate(50.9983,90.4765)"
             id="g12912">
            <path
               inkscape:connector-curvature="0"
               id="path12914"
               style="fill:#5d5351;fill-opacity:1;fill-rule:nonzero;stroke:none"
               d="m 0,0 c 0.106,-1.007 0.557,-1.501 1.393,-1.501 0.643,0 1.822,0.429 2.014,2.015 0.086,0.707 0.064,2.058 0.064,1.951 0,0 -1.114,0.063 -2.015,-0.172 C 0.878,2.142 -0.172,1.692 0,0 m 1.65,7.093 c 0.364,0 2.571,0.15 3.514,-0.965 0.6,-0.706 0.6,-1.414 0.6,-2.4 v -4.949 l 1.565,-0.493 v -0.407 c -0.879,0 -3.708,-0.236 -3.708,-0.236 L 3.45,-0.686 c -0.321,-0.9 -1.393,-1.757 -2.936,-1.8 -1.435,-0.043 -2.743,0.772 -2.893,2.293 -0.193,1.929 1.65,2.957 3.408,3.236 0.663,0.108 1.478,0.171 2.442,0.171 V 4.586 C 3.45,5.808 2.593,6.343 1.692,6.365 0.363,6.386 -0.322,4.929 -0.772,4.114 l -1.157,1.543 c 1.136,1.029 2.486,1.436 3.579,1.436" />
          </g>
          <g
             transform="translate(58.7538,96.7766)"
             id="g12916">
            <path
               inkscape:connector-curvature="0"
               id="path12918"
               style="fill:#5d5351;fill-opacity:1;fill-rule:nonzero;stroke:none"
               d="M 0,0 V 0.386 L 3.471,0.75 3.685,-0.686 C 4.286,0.235 5.121,0.664 5.593,0.75 6.256,0.878 7.2,0.9 7.885,0.407 L 7.114,-1.694 C 6.621,-0.857 6.214,-0.492 5.679,-0.45 4.307,-0.343 3.728,-1.286 3.728,-3.472 v -4.05 L 5.593,-8.057 V -8.443 H 0.065 v 0.386 l 1.392,0.578 v 7.071 z" />
          </g>
          <g
             transform="translate(71.7169,88.7623)"
             id="g12920">
            <path
               inkscape:connector-curvature="0"
               id="path12922"
               style="fill:#5d5351;fill-opacity:1;fill-rule:nonzero;stroke:none"
               d="M 0,0 C 0.793,0 2.379,1.093 2.379,4.157 2.379,6.665 1.714,8.079 0.214,8.165 -1.414,8.25 -2.057,6.342 -2.121,4.093 -2.187,1.757 -1.608,0 0,0 m 0.793,13.736 v 0.386 l 3.814,0.321 V 0.493 L 6.172,-0.064 V -0.45 C 5.315,-0.429 2.464,-0.643 2.464,-0.643 L 2.315,1.135 C 2.079,0.471 1.113,-0.729 -0.343,-0.815 -3.601,-0.986 -4.865,1.436 -4.757,4.286 -4.651,7.414 -2.829,8.936 -0.129,8.871 0.986,8.807 1.843,8.357 2.357,7.436 v 5.893 z" />
          </g>
          <g
             transform="translate(94.4719,98.4056)"
             id="g12924">
            <path
               inkscape:connector-curvature="0"
               id="path12926"
               style="fill:#5d5351;fill-opacity:1;fill-rule:nonzero;stroke:none"
               d="m 0,0 -0.471,0.043 c 0,-0.022 -0.387,1.779 -0.387,1.779 C -1.307,2.165 -2.508,2.85 -4.33,2.764 -6.515,2.657 -8.015,0.235 -8.207,-3.129 -8.4,-6.515 -7.072,-9.43 -4.028,-9.58 c 0.835,-0.042 2.399,0.386 3.235,1.093 l 0.686,1.864 0.471,-0.042 -0.214,-2.892 c -0.986,-0.515 -2.722,-0.944 -5.057,-0.879 -3.45,0.064 -6.257,2.292 -6.129,7.243 0.086,3.386 1.928,6.686 6.493,6.836 3.45,0.043 4.821,-0.921 4.821,-0.921 z" />
          </g>
          <g
             transform="translate(100.6836,88.6549)"
             id="g12928">
            <path
               inkscape:connector-curvature="0"
               id="path12930"
               style="fill:#5d5351;fill-opacity:1;fill-rule:nonzero;stroke:none"
               d="M 0,0 C 1.757,0 2.336,1.822 2.314,4.243 2.293,6.493 1.757,8.272 0,8.272 -1.756,8.272 -2.315,6.386 -2.315,4.243 -2.315,1.929 -1.756,0 0,0 M 4.993,4.393 C 5.1,1.264 2.958,-0.707 0,-0.707 c -2.958,0 -5.079,1.971 -4.971,5.1 0.085,3.279 2.078,4.586 4.928,4.586 2.935,0 4.951,-1.307 5.036,-4.586" />
          </g>
          <g
             transform="translate(106.1027,102.498)"
             id="g12932">
            <path
               inkscape:connector-curvature="0"
               id="path12934"
               style="fill:#5d5351;fill-opacity:1;fill-rule:nonzero;stroke:none"
               d="m 0,0 v 0.386 l 3.858,0.322 v -13.951 l 1.478,-0.535 v -0.386 H 0.107 v 0.386 c 0,0 1.479,0.535 1.458,0.535 v 12.836 z" />
          </g>
          <g
             transform="translate(111.6737,102.498)"
             id="g12936">
            <path
               inkscape:connector-curvature="0"
               id="path12938"
               style="fill:#5d5351;fill-opacity:1;fill-rule:nonzero;stroke:none"
               d="m 0,0 v 0.386 l 3.858,0.322 v -13.951 l 1.478,-0.535 v -0.386 H 0.107 v 0.386 c 0,0 1.478,0.535 1.458,0.535 v 12.836 z" />
          </g>
          <g
             transform="translate(123.8665,93.7979)"
             id="g12940">
            <path
               inkscape:connector-curvature="0"
               id="path12942"
               style="fill:#5d5351;fill-opacity:1;fill-rule:nonzero;stroke:none"
               d="M 0,0 C 0.021,1.478 -0.408,3.086 -1.543,3.171 -3.086,3.3 -3.623,1.436 -3.795,0 Z m -1.286,-5.014 c 0.622,-0.022 1.585,0.235 2.978,1.563 l 0.429,-0.535 c -0.879,-1.05 -1.907,-1.864 -3.578,-1.886 -3.064,-0.043 -5.058,1.629 -4.93,5.164 0.151,2.894 2.144,4.673 4.887,4.544 2.613,-0.13 3.879,-2.336 3.728,-4.65 h -6.064 c -0.043,-1.715 0.063,-4.115 2.55,-4.2" />
          </g>
          <g
             transform="translate(129.3711,94.3766)"
             id="g12944">
            <path
               inkscape:connector-curvature="0"
               id="path12946"
               style="fill:#5d5351;fill-opacity:1;fill-rule:nonzero;stroke:none"
               d="m 0,0 c 0.043,-1.629 0.557,-2.465 1.758,-2.422 1.285,0.043 1.671,1.2 1.606,2.615 C 3.3,1.692 2.872,2.721 1.607,2.678 0.407,2.635 -0.043,1.607 0,0 m -0.857,-9 c 0.129,-1.115 1.479,-2.037 2.915,-1.951 1.285,0.086 2.742,1.222 2.678,2.529 C 4.692,-7.394 3.9,-6.965 1.972,-6.944 0.172,-6.9 -1.05,-7.436 -0.857,-9 M 4.35,2.507 c 0,0 0.536,0.814 1.672,0.9 0.6,0.086 1.307,-0.064 1.607,-0.343 L 7.114,1.349 C 6.644,1.95 6.257,2.249 5.851,2.314 5.314,2.486 4.993,2.186 4.844,2.057 5.207,1.692 5.678,0.986 5.678,0.235 c 0,-1.971 -1.885,-3.257 -3.899,-3.364 -0.429,-0.021 -0.878,0.064 -1.286,0.15 0,0 -1.136,-0.472 -0.922,-1.286 0.171,-0.643 1.479,-0.621 2.229,-0.621 3.3,-0.022 4.565,-0.665 4.714,-3.128 0.043,-1.5 -1.286,-3.365 -3.984,-3.73 -2.423,-0.321 -4.781,0.386 -5.144,2.316 -0.258,1.349 0.493,2.57 2.143,2.892 -0.729,0.193 -1.223,0.536 -1.415,1.393 -0.171,0.728 0.022,1.735 1.543,2.443 -1.179,0.578 -1.992,1.35 -2.014,2.657 C -2.422,2.143 -0.343,3.278 1.693,3.3 3.236,3.321 3.857,2.872 4.35,2.507" />
          </g>
          <g
             transform="translate(143.5337,93.7979)"
             id="g12948">
            <path
               inkscape:connector-curvature="0"
               id="path12950"
               style="fill:#5d5351;fill-opacity:1;fill-rule:nonzero;stroke:none"
               d="M 0,0 C 0.021,1.478 -0.407,3.086 -1.542,3.171 -3.086,3.3 -3.621,1.436 -3.793,0 Z m -1.285,-5.014 c 0.621,-0.022 1.585,0.235 2.978,1.563 l 0.429,-0.535 c -0.878,-1.05 -1.907,-1.864 -3.579,-1.886 -3.064,-0.043 -5.058,1.629 -4.929,5.164 0.15,2.894 2.144,4.673 4.886,4.544 2.615,-0.13 3.878,-2.336 3.729,-4.65 h -6.065 c -0.043,-1.715 0.064,-4.115 2.551,-4.2" />
          </g>
          <g
             transform="translate(153.8387,90.4765)"
             id="g12952">
            <path
               inkscape:connector-curvature="0"
               id="path12954"
               style="fill:#5d5351;fill-opacity:1;fill-rule:nonzero;stroke:none"
               d="m 0,0 c 0.108,-1.007 0.557,-1.501 1.393,-1.501 0.643,0 1.821,0.429 2.015,2.015 0.085,0.707 0.064,2.058 0.064,1.951 0,0 -1.114,0.063 -2.015,-0.172 C 0.879,2.142 -0.171,1.692 0,0 m 1.65,7.093 c 0.365,0 2.572,0.15 3.514,-0.965 0.6,-0.706 0.6,-1.414 0.6,-2.4 v -4.949 l 1.565,-0.493 v -0.407 c -0.878,0 -3.708,-0.236 -3.708,-0.236 L 3.45,-0.686 c -0.32,-0.9 -1.392,-1.757 -2.935,-1.8 -1.436,-0.043 -2.744,0.772 -2.893,2.293 -0.193,1.929 1.65,2.957 3.406,3.236 0.664,0.108 1.479,0.171 2.444,0.171 V 4.586 C 3.45,5.808 2.594,6.343 1.692,6.365 0.365,6.386 -0.321,4.929 -0.772,4.114 l -1.156,1.543 c 1.135,1.029 2.485,1.436 3.578,1.436" />
          </g>
          <g
             transform="translate(165.0223,99.9475)"
             id="g12956">
            <path
               inkscape:connector-curvature="0"
               id="path12958"
               style="fill:#5d5351;fill-opacity:1;fill-rule:nonzero;stroke:none"
               d="M 0,0 V -2.656 H 2.229 V -3.449 H 0 v -4.737 c 0,-1.35 -0.02,-2.207 0.515,-2.614 0.472,-0.364 1.286,-0.172 1.907,0.129 l 0.171,-0.578 c -1.007,-0.751 -3.643,-1.008 -4.457,0.106 -0.579,0.793 -0.428,1.972 -0.449,3.793 v 3.901 h -1.586 v 0.793 h 1.586 v 2.057 z" />
          </g>
          <g
             transform="translate(50.6572,76.5456)"
             id="g12960">
            <path
               inkscape:connector-curvature="0"
               id="path12962"
               style="fill:#d93955;fill-opacity:1;fill-rule:nonzero;stroke:none"
               d="m 0,0 -2.79,-1.653 c -0.522,0.905 -1.019,1.496 -1.491,1.772 -0.493,0.314 -1.128,0.473 -1.906,0.473 -0.954,0 -1.747,-0.271 -2.377,-0.814 -0.63,-0.531 -0.944,-1.202 -0.944,-2.009 0,-1.114 0.827,-2.009 2.48,-2.688 l 2.274,-0.931 c 1.851,-0.75 3.205,-1.664 4.061,-2.741 0.856,-1.08 1.284,-2.402 1.284,-3.968 0,-2.099 -0.699,-3.833 -2.096,-5.201 -1.408,-1.38 -3.155,-2.069 -5.242,-2.069 -1.979,0 -3.613,0.588 -4.902,1.765 -1.27,1.175 -2.062,2.828 -2.377,4.954 l 3.484,0.767 c 0.157,-1.339 0.433,-2.264 0.827,-2.776 0.708,-0.984 1.742,-1.477 3.101,-1.477 1.073,0 1.964,0.359 2.672,1.078 0.71,0.717 1.064,1.628 1.064,2.73 0,0.442 -0.062,0.847 -0.185,1.216 -0.124,0.369 -0.315,0.709 -0.576,1.018 -0.26,0.31 -0.598,0.601 -1.011,0.871 -0.414,0.27 -0.906,0.528 -1.477,0.775 l -2.2,0.914 c -3.12,1.319 -4.681,3.246 -4.681,5.784 0,1.712 0.655,3.143 1.964,4.294 1.309,1.159 2.939,1.74 4.887,1.74 C -3.528,3.824 -1.476,2.55 0,0" />
          </g>
          <path
             inkscape:connector-curvature="0"
             id="path12964"
             style="fill:#d93955;fill-opacity:1;fill-rule:nonzero;stroke:none"
             d="m 56.569,57.129 h -3.44 v 22.797 h 3.44 z" />
          <g
             transform="translate(58.982,57.1292)"
             id="g12966">
            <path
               inkscape:connector-curvature="0"
               id="path12968"
               style="fill:#d93955;fill-opacity:1;fill-rule:nonzero;stroke:none"
               d="M 0,0 4.799,22.872 12.624,6.792 20.731,22.872 25.043,0 h -3.53 L 19.312,13.762 12.566,0.045 6.009,13.777 3.559,0 Z" />
          </g>
          <g
             transform="translate(88.9168,68.5953)"
             id="g12970">
            <path
               inkscape:connector-curvature="0"
               id="path12972"
               style="fill:#d93955;fill-opacity:1;fill-rule:nonzero;stroke:none"
               d="m 0,0 c 0,-2.517 0.847,-4.588 2.539,-6.212 1.684,-1.621 3.628,-2.434 5.833,-2.434 2.391,0 4.409,0.827 6.053,2.479 1.645,1.672 2.467,3.708 2.467,6.107 0,2.43 -0.812,4.465 -2.438,6.109 C 12.841,7.7 10.843,8.527 8.46,8.527 6.088,8.527 4.085,7.7 2.451,6.049 0.817,4.416 0,2.399 0,0 m -3.469,0.037 c 0,3.209 1.175,5.965 3.528,8.267 2.342,2.304 5.158,3.456 8.445,3.456 3.249,0 6.035,-1.161 8.357,-3.484 2.333,-2.324 3.5,-5.115 3.5,-8.371 0,-3.279 -1.172,-6.06 -3.514,-8.343 -2.352,-2.293 -5.193,-3.441 -8.519,-3.441 -2.943,0 -5.587,1.019 -7.93,3.057 -2.578,2.254 -3.867,5.207 -3.867,8.859" />
          </g>
          <g
             transform="translate(111.3362,57.1292)"
             id="g12974">
            <path
               inkscape:connector-curvature="0"
               id="path12976"
               style="fill:#d93955;fill-opacity:1;fill-rule:nonzero;stroke:none"
               d="M 0,0 V 22.709 L 16.625,7.501 v 15.296 h 3.44 L 19.991,0 3.44,15.415 V 0 Z" />
          </g>
          <g
             transform="translate(155.097,76.5456)"
             id="g12978">
            <path
               inkscape:connector-curvature="0"
               id="path12980"
               style="fill:#d93955;fill-opacity:1;fill-rule:nonzero;stroke:none"
               d="m 0,0 -2.79,-1.653 c -0.521,0.905 -1.019,1.496 -1.492,1.772 -0.492,0.314 -1.128,0.473 -1.904,0.473 -0.955,0 -1.749,-0.271 -2.378,-0.814 -0.629,-0.531 -0.944,-1.202 -0.944,-2.009 0,-1.114 0.826,-2.009 2.48,-2.688 l 2.273,-0.931 c 1.85,-0.75 3.204,-1.664 4.06,-2.741 0.858,-1.08 1.286,-2.402 1.286,-3.968 0,-2.099 -0.7,-3.833 -2.097,-5.201 -1.408,-1.38 -3.155,-2.069 -5.242,-2.069 -1.978,0 -3.612,0.588 -4.901,1.765 -1.27,1.175 -2.063,2.828 -2.379,4.954 l 3.487,0.767 c 0.157,-1.339 0.432,-2.264 0.825,-2.776 0.709,-0.984 1.743,-1.477 3.102,-1.477 1.072,0 1.963,0.359 2.671,1.078 0.709,0.717 1.064,1.628 1.064,2.73 0,0.442 -0.061,0.847 -0.185,1.216 -0.123,0.369 -0.315,0.709 -0.576,1.018 -0.261,0.31 -0.597,0.601 -1.011,0.871 -0.413,0.27 -0.905,0.528 -1.476,0.775 l -2.2,0.914 c -3.121,1.319 -4.681,3.246 -4.681,5.784 0,1.712 0.654,3.143 1.964,4.294 1.309,1.159 2.937,1.74 4.886,1.74 C -3.53,3.824 -1.477,2.55 0,0" />
          </g>
          <g
             transform="translate(168.0722,69.4588)"
             id="g12982">
            <path
               inkscape:connector-curvature="0"
               id="path12984"
               style="fill:#d93955;fill-opacity:1;fill-rule:nonzero;stroke:none"
               d="M 0,0 H 1.092 C 4.352,0 5.98,1.246 5.98,3.735 5.98,6.069 4.395,7.234 1.226,7.234 H 0 Z m 4.282,-2.614 7.057,-9.716 H 7.132 L 0.62,-2.997 H 0 v -9.333 h -3.44 v 22.798 h 4.031 c 3.011,0 5.187,-0.566 6.525,-1.699 C 8.593,7.51 9.332,5.847 9.332,3.78 9.332,2.166 8.87,0.778 7.944,-0.385 7.018,-1.546 5.798,-2.288 4.282,-2.614" />
          </g>
          <g
             transform="translate(182.385,68.5953)"
             id="g12986">
            <path
               inkscape:connector-curvature="0"
               id="path12988"
               style="fill:#d93955;fill-opacity:1;fill-rule:nonzero;stroke:none"
               d="m 0,0 c 0,-2.517 0.845,-4.588 2.539,-6.212 1.684,-1.621 3.628,-2.434 5.833,-2.434 2.391,0 4.409,0.827 6.053,2.479 1.644,1.672 2.467,3.708 2.467,6.107 0,2.43 -0.813,4.465 -2.437,6.109 C 12.841,7.7 10.844,8.527 8.46,8.527 6.088,8.527 4.085,7.7 2.451,6.049 0.817,4.416 0,2.399 0,0 m -3.469,0.037 c 0,3.209 1.175,5.965 3.529,8.267 2.342,2.304 5.158,3.456 8.445,3.456 3.248,0 6.033,-1.161 8.357,-3.484 2.333,-2.324 3.499,-5.115 3.499,-8.371 0,-3.279 -1.171,-6.06 -3.515,-8.343 -2.351,-2.293 -5.192,-3.441 -8.519,-3.441 -2.942,0 -5.586,1.019 -7.928,3.057 -2.581,2.254 -3.868,5.207 -3.868,8.859" />
          </g>
          <g
             transform="translate(221.6515,78.7088)"
             id="g12990">
            <path
               inkscape:connector-curvature="0"
               id="path12992"
               style="fill:#d93955;fill-opacity:1;fill-rule:nonzero;stroke:none"
               d="m 0,0 v -4.067 c -1.988,1.663 -4.046,2.495 -6.171,2.495 -2.345,0 -4.317,-0.842 -5.921,-2.525 -1.615,-1.674 -2.422,-3.72 -2.422,-6.143 0,-2.391 0.807,-4.408 2.422,-6.053 1.614,-1.644 3.593,-2.466 5.935,-2.466 1.212,0 2.239,0.197 3.087,0.592 0.471,0.195 0.961,0.461 1.468,0.796 0.508,0.335 1.042,0.738 1.602,1.211 v -4.157 c -1.968,-1.117 -4.037,-1.675 -6.202,-1.675 -3.258,0 -6.037,1.136 -8.341,3.411 -2.295,2.293 -3.442,5.059 -3.442,8.296 0,2.904 0.962,5.494 2.879,7.767 2.364,2.786 5.421,4.179 9.172,4.179 C -3.888,1.661 -1.91,1.107 0,0" />
          </g>
          <g
             transform="translate(227.8001,70.8321)"
             id="g12994">
            <path
               inkscape:connector-curvature="0"
               id="path12996"
               style="fill:#d93955;fill-opacity:1;fill-rule:nonzero;stroke:none"
               d="m 0,0 8.874,9.094 h 4.593 L 3.16,-1.226 13.524,-13.703 H 8.918 L 0.708,-3.558 0,-4.266 v -9.437 H -3.44 V 9.094 H 0 Z" />
          </g>
          <g
             transform="translate(135.6323,80.55)"
             id="g12998">
            <path
               inkscape:connector-curvature="0"
               id="path13000"
               style="fill:#d93955;fill-opacity:1;fill-rule:nonzero;stroke:none"
               d="M 0,0 3.022,0.003 2.579,-8.787 0.431,-8.784 Z" />
          </g>
        </g>
      </g>
    </g>
  </g>
</svg>
